<?xml version="1.0" encoding="utf-8"?>
<!-- Svg Vector Icons : http://www.onlinewebfonts.com/icon -->
<!DOCTYPE svg PUBLIC "-//W3C//DTD SVG 1.1//EN" "http://www.w3.org/Graphics/SVG/1.1/DTD/svg11.dtd">
<svg version="1.1" xmlns="http://www.w3.org/2000/svg" xmlns:xlink="http://www.w3.org/1999/xlink" x="0px" y="0px" viewBox="0 0 1000 1000" enable-background="new 0 0 1000 1000" xml:space="preserve">
<metadata> Svg Vector Icons : http://www.onlinewebfonts.com/icon </metadata>
<g><g transform="translate(0.000000,511.000000) scale(0.100000,-0.100000)"><path d="M2938.3,4902.9c-695.8-127.9-1281.5-429.7-1793.1-928.5c-532-519.3-849.2-1105-997.6-1849.4c-69.1-337.7-61.4-961.8,12.8-1309.7c145.8-690.6,442.5-1240.6,949-1749.6c503.9-506.5,1061.5-805.7,1793.1-961.8c299.3-61.4,972-61.4,1284.1,0c447.6,89.5,920.9,283.9,1284.1,524.4l150.9,102.3l156-143.2c87-81.9,897.8-836.4,1800.8-1680.6c902.9-844.1,1678-1555.2,1724-1580.8c322.3-176.5,703.4,158.6,570.4,503.9c-35.8,94.6-314.6,365.8-1844.2,1793.1C6435-888.3,6227.8-688.7,6255.9-650.4c342.7,463,524.4,836.5,652.3,1340.4c87,350.4,110,1007.8,48.6,1371c-127.9,739.2-437.4,1342.9-961.8,1869.8c-491.1,493.7-1059,805.7-1739.4,956.7C3956.3,4954,3258,4961.7,2938.3,4902.9z M4114.9,4478.3c1146-220,2084.7-1094.8,2363.5-2210c145.8-573,133-1122.9-38.4-1665.2C6102.4-476.4,5179-1289.9,4079.1-1481.7c-317.2-56.3-821.1-48.6-1135.7,15.4C1720.7-1220.8,771.7-238.5,554.3,999.5c-58.8,337.6-35.8,915.7,51.2,1240.6c232.8,892.7,833.9,1616.6,1667.8,2010.5c258.3,122.8,621.6,227.7,910.6,266C3426.8,4544.8,3854,4529.4,4114.9,4478.3z"/></g></g>
</svg>